<svg width="70" height="50" viewBox="0 0 70 50" fill="none" xmlns="http://www.w3.org/2000/svg">
<rect width="70" height="50" rx="4" fill="#5C62EC"/>
<path d="M25.4414 29.5C25.4414 29.2109 25.3984 28.9531 25.3125 28.7266C25.2266 28.4922 25.0703 28.2773 24.8438 28.082C24.6172 27.8867 24.2969 27.6914 23.8828 27.4961C23.4688 27.293 22.9258 27.0859 22.2539 26.875C21.4883 26.625 20.7578 26.3438 20.0625 26.0312C19.375 25.7109 18.7617 25.3398 18.2227 24.918C17.6836 24.4961 17.2578 24.0039 16.9453 23.4414C16.6406 22.8789 16.4883 22.2227 16.4883 21.4727C16.4883 20.7461 16.6484 20.0898 16.9688 19.5039C17.2891 18.918 17.7383 18.418 18.3164 18.0039C18.8945 17.582 19.5742 17.2617 20.3555 17.043C21.1367 16.8164 21.9961 16.7031 22.9336 16.7031C24.1836 16.7031 25.2812 16.9258 26.2266 17.3711C27.1797 17.8086 27.9219 18.4258 28.4531 19.2227C28.9844 20.0117 29.25 20.9297 29.25 21.9766H25.4531C25.4531 21.5156 25.3555 21.1094 25.1602 20.7578C24.9727 20.3984 24.6836 20.1172 24.293 19.9141C23.9102 19.7109 23.4297 19.6094 22.8516 19.6094C22.2891 19.6094 21.8164 19.6953 21.4336 19.8672C21.0586 20.0312 20.7734 20.2578 20.5781 20.5469C20.3906 20.8359 20.2969 21.1523 20.2969 21.4961C20.2969 21.7695 20.3672 22.0195 20.5078 22.2461C20.6562 22.4648 20.8672 22.6719 21.1406 22.8672C21.4219 23.0547 21.7656 23.2344 22.1719 23.4062C22.5781 23.5781 23.043 23.7422 23.5664 23.8984C24.4805 24.1875 25.2891 24.5078 25.9922 24.8594C26.7031 25.2109 27.3008 25.6094 27.7852 26.0547C28.2695 26.5 28.6328 27.0039 28.875 27.5664C29.125 28.1289 29.25 28.7656 29.25 29.4766C29.25 30.2344 29.1016 30.9062 28.8047 31.4922C28.5156 32.0781 28.0938 32.5781 27.5391 32.9922C26.9922 33.3984 26.3359 33.707 25.5703 33.918C24.8047 34.1289 23.9492 34.2344 23.0039 34.2344C22.1445 34.2344 21.2969 34.125 20.4609 33.9062C19.625 33.6797 18.8672 33.3359 18.1875 32.875C17.5156 32.4141 16.9766 31.8281 16.5703 31.1172C16.1719 30.3984 15.9727 29.5469 15.9727 28.5625H19.793C19.793 29.0781 19.8672 29.5156 20.0156 29.875C20.1641 30.2266 20.375 30.5117 20.6484 30.7305C20.9297 30.9492 21.2695 31.1055 21.668 31.1992C22.0664 31.293 22.5117 31.3398 23.0039 31.3398C23.5742 31.3398 24.0352 31.2617 24.3867 31.1055C24.7461 30.9414 25.0117 30.7188 25.1836 30.4375C25.3555 30.1562 25.4414 29.8438 25.4414 29.5ZM35.5664 16.9375V34H31.7578V16.9375H35.5664ZM52.875 25.0938V25.8555C52.875 27.1523 52.6953 28.3164 52.3359 29.3477C51.9844 30.3789 51.4805 31.2578 50.8242 31.9844C50.1758 32.7109 49.4023 33.2695 48.5039 33.6602C47.6133 34.043 46.625 34.2344 45.5391 34.2344C44.4531 34.2344 43.4609 34.043 42.5625 33.6602C41.6641 33.2695 40.8828 32.7109 40.2188 31.9844C39.5625 31.2578 39.0547 30.3789 38.6953 29.3477C38.3359 28.3164 38.1562 27.1523 38.1562 25.8555V25.0938C38.1562 23.7969 38.3359 22.6328 38.6953 21.6016C39.0547 20.5625 39.5586 19.6797 40.207 18.9531C40.8633 18.2266 41.6406 17.6719 42.5391 17.2891C43.4375 16.8984 44.4297 16.7031 45.5156 16.7031C46.6016 16.7031 47.5938 16.8984 48.4922 17.2891C49.3906 17.6719 50.1641 18.2266 50.8125 18.9531C51.4688 19.6797 51.9766 20.5625 52.3359 21.6016C52.6953 22.6328 52.875 23.7969 52.875 25.0938ZM49.0195 25.8555V25.0703C49.0195 24.2031 48.9414 23.4375 48.7852 22.7734C48.6289 22.1016 48.4023 21.5391 48.1055 21.0859C47.8086 20.6328 47.4414 20.293 47.0039 20.0664C46.5664 19.832 46.0703 19.7148 45.5156 19.7148C44.9375 19.7148 44.4336 19.832 44.0039 20.0664C43.5742 20.293 43.2109 20.6328 42.9141 21.0859C42.625 21.5391 42.4023 22.1016 42.2461 22.7734C42.0977 23.4375 42.0234 24.2031 42.0234 25.0703V25.8555C42.0234 26.7148 42.0977 27.4805 42.2461 28.1523C42.4023 28.8164 42.6289 29.3789 42.9258 29.8398C43.2227 30.3008 43.5859 30.6484 44.0156 30.8828C44.4531 31.1172 44.9609 31.2344 45.5391 31.2344C46.0938 31.2344 46.5859 31.1172 47.0156 30.8828C47.4531 30.6484 47.8203 30.3008 48.1172 29.8398C48.4141 29.3789 48.6367 28.8164 48.7852 28.1523C48.9414 27.4805 49.0195 26.7148 49.0195 25.8555Z" fill="#FAFAFA"/>
</svg>
