<svg width="70" height="50" viewBox="0 0 70 50" fill="none" xmlns="http://www.w3.org/2000/svg">
<rect width="70" height="50" rx="4" fill="#5C62EC"/>
<path d="M25.6992 16.9375V34H21.8789V16.9375H25.6992ZM32.4141 24.1328V27.0859H24.6328V24.1328H32.4141ZM33.1641 16.9375V19.9023H24.6328V16.9375H33.1641ZM43.875 29.5C43.875 29.2109 43.832 28.9531 43.7461 28.7266C43.6602 28.4922 43.5039 28.2773 43.2773 28.082C43.0508 27.8867 42.7305 27.6914 42.3164 27.4961C41.9023 27.293 41.3594 27.0859 40.6875 26.875C39.9219 26.625 39.1914 26.3438 38.4961 26.0312C37.8086 25.7109 37.1953 25.3398 36.6562 24.918C36.1172 24.4961 35.6914 24.0039 35.3789 23.4414C35.0742 22.8789 34.9219 22.2227 34.9219 21.4727C34.9219 20.7461 35.082 20.0898 35.4023 19.5039C35.7227 18.918 36.1719 18.418 36.75 18.0039C37.3281 17.582 38.0078 17.2617 38.7891 17.043C39.5703 16.8164 40.4297 16.7031 41.3672 16.7031C42.6172 16.7031 43.7148 16.9258 44.6602 17.3711C45.6133 17.8086 46.3555 18.4258 46.8867 19.2227C47.418 20.0117 47.6836 20.9297 47.6836 21.9766H43.8867C43.8867 21.5156 43.7891 21.1094 43.5938 20.7578C43.4062 20.3984 43.1172 20.1172 42.7266 19.9141C42.3438 19.7109 41.8633 19.6094 41.2852 19.6094C40.7227 19.6094 40.25 19.6953 39.8672 19.8672C39.4922 20.0312 39.207 20.2578 39.0117 20.5469C38.8242 20.8359 38.7305 21.1523 38.7305 21.4961C38.7305 21.7695 38.8008 22.0195 38.9414 22.2461C39.0898 22.4648 39.3008 22.6719 39.5742 22.8672C39.8555 23.0547 40.1992 23.2344 40.6055 23.4062C41.0117 23.5781 41.4766 23.7422 42 23.8984C42.9141 24.1875 43.7227 24.5078 44.4258 24.8594C45.1367 25.2109 45.7344 25.6094 46.2188 26.0547C46.7031 26.5 47.0664 27.0039 47.3086 27.5664C47.5586 28.1289 47.6836 28.7656 47.6836 29.4766C47.6836 30.2344 47.5352 30.9062 47.2383 31.4922C46.9492 32.0781 46.5273 32.5781 45.9727 32.9922C45.4258 33.3984 44.7695 33.707 44.0039 33.918C43.2383 34.1289 42.3828 34.2344 41.4375 34.2344C40.5781 34.2344 39.7305 34.125 38.8945 33.9062C38.0586 33.6797 37.3008 33.3359 36.6211 32.875C35.9492 32.4141 35.4102 31.8281 35.0039 31.1172C34.6055 30.3984 34.4062 29.5469 34.4062 28.5625H38.2266C38.2266 29.0781 38.3008 29.5156 38.4492 29.875C38.5977 30.2266 38.8086 30.5117 39.082 30.7305C39.3633 30.9492 39.7031 31.1055 40.1016 31.1992C40.5 31.293 40.9453 31.3398 41.4375 31.3398C42.0078 31.3398 42.4688 31.2617 42.8203 31.1055C43.1797 30.9414 43.4453 30.7188 43.6172 30.4375C43.7891 30.1562 43.875 29.8438 43.875 29.5Z" fill="#FAFAFA"/>
</svg>
